# xmcd
#
# Track frame offsets: 
#        150
#        11665
#        24648
#        37863
#        51325
#        64994
#        77029
#        89436
#        100851
#        114146
#        125923
#        138810
#        150733
#        162880
#        175691
#        187303
#        197992
#        210150
#        223048
#        236006
#        248819
#        260882
#        272821
#        284428
#        296867
#        308823
#        322606
#        334633
#
# Disc length: 4626 seconds
#
# Revision: 1
# Processed by: cddbd v1.5.2PL0 Copyright (c) Steve Scherf et al.
# Submitted via: ExactAudioCopyFreeDBPlugin 1.0
#
DISCID=9d12101c
DTITLE=Various Artist - Saoco! V2 Bomba, Plena and the Roots of Salsa
DTITLE=in Puerto Rico 1955-1967
DYEAR=2013
DGENRE=Salsa
TTITLE0=Cortijo y su combo - Saoco
TTITLE1=Mon Rivera y su orquesta - Kijis Konar
TTITLE2=Odilio Gonzalez - El paquetero
TTITLE3=Cortijo y su combo - El negro bembon
TTITLE4=Mario Ortiz and His All-Star Band - Se acabo el bembe
TTITLE5=Ramito - Candela
TTITLE6=Kito Velez y sus estrellas - Que Chevere
TTITLE7=Moncho Lena y los ases del ritmo - Guaracha y el Cha Cha Cha
TTITLE8=Cortijo y su combo - Moliendo cafe
TTITLE9=Chivirico - Apagalo
TTITLE10=Moncho Lena y los ases del ritmo - Martinez Nadal
TTITLE11=Cortijo y su combo - Maria Teresa
TTITLE12=Ismael Santiago y sus pleneros - Pacharo
TTITLE13=Chuito el de Bayamon - La vieja voladora
TTITLE14=Cortijo y su combo - Oriza
TTITLE15=Kito Velez y sus estrellas - Rule con dama
TTITLE16=Joe Cotto y su orquesta - Dolores
TTITLE17=Mario Ortiz and His All-Star Band - Tras tres tragos
TTITLE18=Chuito el de Bayamon - Dame un traguito
TTITLE19=Odilio Gonzalez - Muchachita lozana
TTITLE20=Cortijo under the name of Canario y su grupo - La negra Merce
TTITLE20=d
TTITLE21=Cortijo y su combo - Madame Calalu
TTITLE22=Moncho Lena y los ases del ritmo - Paquete no mas
TTITLE23=Tonin Romero con Claudio Ferrer y sus jibaros - Arrabalera
TTITLE24=Chivirico - Que culpa tengo yo
TTITLE25=Cortijo y su combo - Me voy pa' Maracangaya
TTITLE26=Mon Rivera y su orquesta - A papa cuando venga
TTITLE27=Ramito - Lo que tu no sabes
EXTD=YEAR: 2013
EXTT0=
EXTT1=
EXTT2=
EXTT3=
EXTT4=
EXTT5=
EXTT6=
EXTT7=
EXTT8=
EXTT9=
EXTT10=
EXTT11=
EXTT12=
EXTT13=
EXTT14=
EXTT15=
EXTT16=
EXTT17=
EXTT18=
EXTT19=
EXTT20=
EXTT21=
EXTT22=
EXTT23=
EXTT24=
EXTT25=
EXTT26=
EXTT27=
PLAYORDER=
